<svg xmlns="http://www.w3.org/2000/svg" width="1024" height="1024" viewBox="0 0 1024 1024">
  <rect x="110" y="110" width="804" height="804" rx="180" ry="180"
        fill="none" stroke="#7bb307" stroke-width="30"/>
  <g transform="translate(0.000000,1024.000000) scale(0.100000,-0.100000)" fill="#7bb307" stroke="none">
<path d="M4410 7064 c-452 -43 -767 -179 -1035 -448 -122 -122 -209 -237 -278
-366 -45 -84 -64 -129 -285 -660 -100 -238 -164 -392 -324 -775 -28 -66 -88
-209 -134 -317 -104 -245 -146 -367 -175 -498 -76 -356 72 -656 379 -767 162
-59 93 -56 1400 -60 1332 -5 1270 -8 1140 58 -278 140 -445 377 -489 693 l-12
86 -639 0 c-691 0 -677 -1 -728 55 -21 23 -25 36 -25 93 0 63 7 84 122 357 66
160 154 369 193 465 64 156 99 239 237 570 105 251 187 440 208 476 30 51 100
116 157 145 105 54 86 53 889 56 l745 4 154 162 c84 89 196 207 249 262 296
306 361 376 361 389 0 8 -15 16 -37 20 -38 6 -2007 6 -2073 0z"/>
<path d="M7053 7063 c-40 -4 -50 -13 -230 -206 -103 -111 -303 -323 -443 -472
-980 -1036 -1079 -1147 -1258 -1401 -391 -556 -452 -1166 -149 -1490 220 -236
584 -347 1028 -315 746 55 1379 509 1652 1187 138 342 149 664 30 904 -81 162
-252 291 -468 352 -85 24 -326 33 -422 15 -36 -6 -43 -5 -43 9 0 8 88 109 196
222 109 114 339 358 513 542 173 184 377 399 454 478 87 90 137 150 135 160
-3 16 -41 17 -478 18 -261 0 -494 -1 -517 -3z m-432 -2149 c59 -28 115 -78
140 -126 85 -166 -37 -504 -239 -663 -126 -101 -277 -155 -427 -155 -304 0
-420 189 -304 493 72 187 225 355 387 425 130 55 349 68 443 26z"/>
</g>
</svg>
